<svg width="34" height="34" viewBox="0 0 34 34" fill="none" xmlns="http://www.w3.org/2000/svg">
<path d="M28.9531 34C30.6009 34 31.9414 32.6595 31.9414 31.0117V2.98828C31.9414 1.34054 30.6009 0 28.9531 0H5.04688C3.39914 0 2.05859 1.34054 2.05859 2.98828V31.0117C2.05859 32.6595 3.39914 34 5.04688 34H28.9531ZM4.05078 31.0117V2.98828C4.05078 2.43904 4.49763 1.99219 5.04688 1.99219H28.9531C29.5024 1.99219 29.9492 2.43904 29.9492 2.98828V31.0117C29.9492 31.561 29.5024 32.0078 28.9531 32.0078H5.04688C4.49763 32.0078 4.05078 31.561 4.05078 31.0117Z" fill="#3C2213"/>
<circle cx="17" cy="17" r="5" fill="#FDCF08"/>
<path d="M6.95701 21.4481C7.48222 22.6555 9.30992 21.8629 8.78385 20.6535C7.32451 17.2984 8.07888 13.3094 10.661 10.7272C14.1564 7.23189 19.8438 7.23189 23.3392 10.7272C25.9213 13.3093 26.6756 17.2983 25.2163 20.6535C24.6909 21.8611 26.5171 22.6575 27.0431 21.4481C28.8038 17.4004 27.9961 12.5669 24.7479 9.31864C20.4758 5.04646 13.5245 5.04646 9.25235 9.31864C6.00435 12.5665 5.19618 17.4 6.95701 21.4481Z" fill="#3C2213"/>
<path d="M17 10.0938C13.1553 10.0938 10.0273 13.2217 10.0273 17.0664C10.0273 20.9111 13.1553 24.0391 17 24.0391C20.8447 24.0391 23.9727 20.9111 23.9727 17.0664C23.9727 13.2217 20.8447 10.0938 17 10.0938ZM17 22.0469C14.2538 22.0469 12.0195 19.8126 12.0195 17.0664C12.0195 14.6612 13.7333 12.6489 16.0039 12.1861V17.0664C16.0039 17.6165 16.4499 18.0625 17 18.0625C17.5501 18.0625 17.9961 17.6165 17.9961 17.0664V12.1861C20.2667 12.6489 21.9805 14.6612 21.9805 17.0664C21.9805 19.8126 19.7462 22.0469 17 22.0469Z" fill="#3C2213"/>
<path d="M7.03906 5.97656C7.58919 5.97656 8.03516 5.5306 8.03516 4.98047C8.03516 4.43034 7.58919 3.98438 7.03906 3.98438C6.48894 3.98438 6.04297 4.43034 6.04297 4.98047C6.04297 5.5306 6.48894 5.97656 7.03906 5.97656Z" fill="#3C2213"/>
<path d="M26.9609 5.97656C27.5111 5.97656 27.957 5.5306 27.957 4.98047C27.957 4.43034 27.5111 3.98438 26.9609 3.98438C26.4108 3.98438 25.9648 4.43034 25.9648 4.98047C25.9648 5.5306 26.4108 5.97656 26.9609 5.97656Z" fill="#3C2213"/>
<path d="M7.03906 30.0156C7.58919 30.0156 8.03516 29.5697 8.03516 29.0195C8.03516 28.4694 7.58919 28.0234 7.03906 28.0234C6.48894 28.0234 6.04297 28.4694 6.04297 29.0195C6.04297 29.5697 6.48894 30.0156 7.03906 30.0156Z" fill="#3C2213"/>
<path d="M26.9609 30.0156C27.5111 30.0156 27.957 29.5697 27.957 29.0195C27.957 28.4694 27.5111 28.0234 26.9609 28.0234C26.4108 28.0234 25.9648 28.4694 25.9648 29.0195C25.9648 29.5697 26.4108 30.0156 26.9609 30.0156Z" fill="#3C2213"/>
</svg>
