<svg width="34" height="34" viewBox="0 0 34 34" fill="none" xmlns="http://www.w3.org/2000/svg">
<g clip-path="url(#clip0_1_523)">
<path d="M12.0421 29.0193C12.0421 31.7657 14.2764 34 17.0227 34C19.769 34 22.0033 31.7657 22.0033 29.0193V24.4237C22.0033 21.905 23.1912 20.5356 24.5667 18.9498C26.1666 17.1051 27.9801 15.0143 27.9801 10.9562C27.9801 4.04427 21.6535 -1.2137 14.6713 0.2443C10.371 1.14234 6.9794 4.6701 6.23164 9.02265C5.33878 14.2191 7.443 16.567 9.29952 18.6385C10.7711 20.2804 12.042 21.6985 12.042 24.4933L12.0421 29.0193ZM17.0226 32.0077C15.724 32.0077 14.6168 31.1748 14.2056 30.0155H17.0226C17.5728 30.0155 18.0188 29.5695 18.0188 29.0193C18.0188 28.4692 17.5728 28.0232 17.0226 28.0232H14.0343V26.031H20.011V29.0193C20.011 30.6671 18.6705 32.0077 17.0226 32.0077ZM10.7832 17.3088C9.00287 15.3224 7.46538 13.6069 8.19508 9.35994C8.80557 5.80635 11.5718 2.92674 15.0785 2.19445C20.802 0.999432 25.9877 5.28817 25.9877 10.9562C25.9877 14.2707 24.5663 15.9095 23.0615 17.6444C21.622 19.304 20.1363 21.0188 20.0193 24.0387H14.0234C13.883 20.7699 12.2407 18.935 10.7832 17.3088Z" fill="#3C2213"/>
<path d="M10.7737 17.3153L10.7737 17.3153C12.2313 18.9415 13.8736 20.7764 14.0139 24.0452H20.0098C20.1268 21.0253 21.6125 19.3106 23.0521 17.6509C24.5569 15.916 25.9783 14.2772 25.9783 10.9627C25.9783 5.29469 20.7926 1.00596 15.069 2.20098C11.5624 2.93327 8.79614 5.81288 8.18564 9.36647C7.45595 13.6134 8.99341 15.3289 10.7737 17.3153Z" fill="#FDCF08"/>
<path d="M14.5849 11.8472L17.3333 13.2214L16.3183 14.2363C15.3871 15.1675 16.7945 16.5778 17.727 15.6451L19.7193 13.6528C20.1995 13.1725 20.0683 12.3614 19.4604 12.0575L16.7121 10.6833L17.727 9.6683C18.6583 8.73712 17.2509 7.32687 16.3183 8.25958L14.3261 10.2518C13.8459 10.7321 13.9771 11.5432 14.5849 11.8472Z" fill="#3C2213"/>
</g>
<defs>
<clipPath id="clip0_1_523">
<rect width="34" height="34" fill="white"/>
</clipPath>
</defs>
</svg>
