<svg width="34" height="34" viewBox="0 0 34 34" fill="none" xmlns="http://www.w3.org/2000/svg">
<g clip-path="url(#clip0_1_531)">
<path d="M33.8339 1.70955L32.2874 0.163158C32.0749 -0.0493404 31.6987 -0.0493404 31.4862 0.163158L26.8463 4.80299C26.6248 5.02452 26.6248 5.38271 26.8463 5.60424L28.3927 7.15063C28.4987 7.25715 28.6432 7.31665 28.7933 7.31665C28.9435 7.31665 29.0875 7.25715 29.194 7.15063L33.8338 2.5108C34.0554 2.28927 34.0554 1.93114 33.8339 1.70955ZM28.7934 5.94876L28.0483 5.20362L31.8869 1.36504L32.632 2.11017L28.7934 5.94876Z" fill="#3C2213"/>
<path d="M29.5527 6.70864L27.2884 4.44427C26.6254 3.78127 25.5476 3.78127 24.8846 4.44427L24.1389 5.18941C24.0324 5.29539 23.9729 5.43929 23.9729 5.59003C23.9729 5.74018 24.0324 5.88414 24.1389 5.99066L28.0058 9.85753C28.1118 9.96404 28.2563 10.0235 28.4064 10.0235C28.5572 10.0235 28.7011 9.96345 28.8077 9.85753L29.5528 9.11239C30.2157 8.4494 30.2157 7.37163 29.5527 6.70864ZM28.7509 8.31061L28.4064 8.65512L25.3413 5.5895L25.6858 5.24499C25.9068 5.02512 26.2661 5.02399 26.4871 5.24499L28.7509 7.50936C28.9719 7.73035 28.9719 8.08961 28.7509 8.31061Z" fill="#3C2213"/>
<path d="M29.096 9.34473L24.6512 4.89986C23.7949 4.04362 22.6571 3.57214 21.4461 3.57214C20.2357 3.57214 19.0978 4.04362 18.2416 4.89986L14.8592 8.28224C14.7527 8.38822 14.6932 8.53212 14.6932 8.68286C14.6932 8.8336 14.7527 8.97697 14.8592 9.08349L24.9124 19.1372C25.0229 19.2477 25.168 19.3032 25.313 19.3032C25.4581 19.3032 25.6031 19.2477 25.7136 19.1372L29.096 15.7548C30.8629 13.9874 30.8629 11.1116 29.096 9.34473ZM28.2948 14.9536L25.313 17.9353L16.061 8.68286L19.0428 5.70164C19.6848 5.05963 20.5382 4.70602 21.446 4.70602C22.3544 4.70602 23.2078 5.05963 23.8498 5.70164L28.2946 10.1465C29.6196 11.4714 29.6196 13.6282 28.2948 14.9536Z" fill="#3C2213"/>
<path d="M24.5542 7.89636L23.0072 6.34878C22.1464 5.48856 20.7473 5.48856 19.8872 6.34878L18.3402 7.89636C18.1186 8.11796 18.1186 8.47609 18.3402 8.69762C18.5618 8.91915 18.9205 8.91915 19.1415 8.69762L20.6884 7.15003C21.1072 6.73181 21.7878 6.73181 22.2059 7.15003L23.7529 8.69762C23.8634 8.80811 24.0085 8.86363 24.1536 8.86363C24.2981 8.86363 24.4431 8.80811 24.5542 8.69762C24.7757 8.47609 24.7757 8.11789 24.5542 7.89636Z" fill="#3C2213"/>
<path d="M7.15369 28.3891L5.6073 26.8427C5.50132 26.7362 5.35682 26.6767 5.20667 26.6767C5.05653 26.6767 4.91256 26.7362 4.80605 26.8427L0.166147 31.4825C-0.0553824 31.7041 -0.0553824 32.0623 0.166147 32.2838L1.71254 33.8302C1.81852 33.9367 1.96302 33.9962 2.11316 33.9962C2.2639 33.9962 2.40781 33.9367 2.51379 33.8302L7.15362 29.1904C7.37522 28.9688 7.37522 28.6107 7.15369 28.3891ZM2.11323 32.6283L1.36809 31.8832L5.20667 28.0446L5.95181 28.7897L2.11323 32.6283Z" fill="#3C2213"/>
<path d="M9.86003 28.0032L5.99316 24.1364C5.88718 24.0298 5.74268 23.9703 5.59253 23.9703C5.44239 23.9703 5.29842 24.0298 5.19191 24.1364L4.44677 24.8815C3.78378 25.5445 3.78378 26.6222 4.44677 27.2852L6.71114 29.5496C7.04264 29.8811 7.47786 30.0466 7.91302 30.0466C8.34817 30.0466 8.7834 29.8811 9.11436 29.5496L9.8601 28.8045C9.96661 28.6985 10.0261 28.5546 10.0261 28.4038C10.026 28.2537 9.96655 28.1098 9.86003 28.0032ZM8.31477 28.7478C8.09377 28.9677 7.73452 28.9688 7.51352 28.7478L5.24915 26.4835C5.02815 26.2625 5.02815 25.9032 5.24915 25.6822L5.59366 25.3377L8.65928 28.4033L8.31477 28.7478Z" fill="#3C2213"/>
<path d="M12.9625 30C14 30 14.9752 29.596 15.709 28.8624L20 24.5716L9.42722 14L5.13558 18.2909C3.62147 19.8053 3.62147 22.2697 5.13558 23.7835L10.2154 28.8624C10.9491 29.596 11.9243 30 12.9625 30Z" fill="#FDCF08"/>
<path d="M19.9138 24.1352L9.86066 14.082C9.64817 13.8695 9.27191 13.8695 9.05941 14.082L4.90354 18.2379C3.13669 20.0053 3.13669 22.8811 4.90354 24.648L9.34841 29.0929C10.2046 29.9491 11.3425 30.4206 12.5535 30.4206C13.7645 30.4206 14.9023 29.9491 15.7586 29.0923L19.9139 24.9365C20.1354 24.7149 20.1354 24.3567 19.9138 24.1352ZM14.9566 28.2917C14.3146 28.9337 13.4612 29.2873 12.5534 29.2873C11.6451 29.2873 10.7917 28.9337 10.1497 28.2917L5.70479 23.8468C4.37993 22.5219 4.37993 20.3652 5.70479 19.0398L9.46004 15.2846L18.7114 24.5365L14.9566 28.2917Z" fill="#3C2213"/>
<path d="M16.435 12.1497C15.8072 11.5224 14.7135 11.5218 14.0868 12.1497L10.6063 15.6296C10.4998 15.7355 10.4403 15.8794 10.4403 16.0302C10.4403 16.1809 10.4998 16.3243 10.6063 16.4308L12.1527 17.9772C12.2632 18.0877 12.4083 18.1432 12.5533 18.1432C12.6984 18.1432 12.8435 18.0877 12.9551 17.9772L16.435 14.4973C16.7483 14.184 16.9212 13.7669 16.9212 13.3232C16.9212 12.8796 16.7484 12.4631 16.435 12.1497ZM15.6321 13.6956L12.5529 16.7748L11.8077 16.0297L14.887 12.9504C15.0859 12.7509 15.4327 12.7509 15.6321 12.951C15.7313 13.0502 15.7862 13.1822 15.7862 13.3228C15.7862 13.4638 15.7318 13.5958 15.6321 13.6956Z" fill="#3C2213"/>
<path d="M21.8478 17.5625C21.2001 16.9148 20.1472 16.9143 19.4996 17.5625L16.0197 21.0424C15.9132 21.1484 15.8537 21.2923 15.8537 21.443C15.8537 21.5938 15.9132 21.7371 16.0197 21.8436L17.5661 23.39C17.6766 23.5005 17.8217 23.5561 17.9667 23.5561C18.1118 23.5561 18.2569 23.5011 18.3674 23.3906L21.8478 19.9107C22.4949 19.2631 22.4949 18.2102 21.8478 17.5625ZM21.046 19.1089L17.9667 22.1882L17.2216 21.443L20.3008 18.3638C20.5003 18.1643 20.8471 18.1643 21.046 18.3638C21.2511 18.5689 21.2511 18.9038 21.046 19.1089Z" fill="#3C2213"/>
<path d="M16.8203 24.1357L9.86063 17.176C9.6391 16.9544 9.28091 16.9544 9.05938 17.176L5.966 20.2694C5.74441 20.491 5.74441 20.8491 5.966 21.0707L12.9263 28.0304C13.0368 28.1409 13.1819 28.1964 13.3269 28.1964C13.4714 28.1964 13.6165 28.1409 13.727 28.0304L16.8204 24.937C17.0419 24.7155 17.0419 24.3573 16.8203 24.1357ZM13.3263 26.8286L7.16788 20.6701L9.46 18.378L15.6185 24.5364L13.3263 26.8286Z" fill="#3C2213"/>
<path d="M12.954 23.3629L10.6341 21.0424C10.4126 20.8209 10.0544 20.8208 9.8329 21.0424C9.61137 21.264 9.61137 21.6221 9.8329 21.8437L12.1528 24.1642C12.2633 24.2747 12.4084 24.3302 12.5534 24.3302C12.6984 24.3302 12.8435 24.2747 12.954 24.1642C13.1756 23.9426 13.1756 23.5844 12.954 23.3629Z" fill="#3C2213"/>
</g>
<defs>
<clipPath id="clip0_1_531">
<rect width="34" height="34" fill="white"/>
</clipPath>
</defs>
</svg>
