<svg width="34" height="34" viewBox="0 0 34 34" fill="none" xmlns="http://www.w3.org/2000/svg">
<g clip-path="url(#clip0_1_569)">
<rect x="2" y="21" width="30" height="3" fill="#FDCF08"/>
<path d="M27.4006 2.58984H6.59938C2.96053 2.58984 0 5.55037 0 9.18922V24.8139C0 25.5475 0.594543 26.142 1.32812 26.142H5.22404V30.0379C5.22404 30.7713 5.81859 31.3661 6.55217 31.3661C7.28575 31.3661 7.88029 30.7713 7.88029 30.0379V26.142H10.4478V30.0379C10.4478 30.7713 11.0424 31.3661 11.776 31.3661C12.5095 31.3661 13.1041 30.7713 13.1041 30.0379V26.142H26.1197V30.0379C26.1197 30.7713 26.7142 31.3661 27.4478 31.3661C28.1814 31.3661 28.776 30.7713 28.776 30.0379V26.142H32.6719C33.4055 26.142 34 25.5475 34 24.8139V9.18922C34 5.55037 31.0395 2.58984 27.4006 2.58984V2.58984ZM6.59938 5.24609H27.4006C29.5749 5.24609 31.3438 7.01494 31.3438 9.18922V18.2617H2.65625V9.18922C2.65625 7.01494 4.42509 5.24609 6.59938 5.24609ZM2.65625 23.4858V20.918H31.3438V23.4858H2.65625Z" fill="#3C2213"/>
</g>
<defs>
<clipPath id="clip0_1_569">
<rect width="34" height="34" fill="white"/>
</clipPath>
</defs>
</svg>
