<svg width="34" height="34" viewBox="0 0 34 34" fill="none" xmlns="http://www.w3.org/2000/svg">
<g clip-path="url(#clip0_1_575)">
<path d="M18.5 12L16.5 14.5H13.5L11.5 16L10.5 18V20.5L11.5 22.5L13.5 23.5H17.5L19.5 21V18.5L22.5 15.5L23 17V20L22 23.5L17.5 27H15L11.5 26.5L7.5 23.5L6.5 18L8 14L12 11H17.5L18.5 12Z" fill="#FDCF08"/>
<path d="M33.6617 4.34983C33.5505 4.10765 33.3402 3.92533 33.0846 3.84971C32.8292 3.79765 32.5653 3.88557 32.3922 4.08055L30.1993 6.2734L27.8911 3.92673L30.0839 1.73388C30.2722 1.55701 30.3464 1.29001 30.2763 1.04142C30.2403 0.766241 30.0434 0.539078 29.7761 0.464338C27.4653 -0.345499 24.8948 0.237321 23.1592 1.96472C22.223 2.92154 21.605 4.14417 21.3896 5.46548L17.8888 4.08055L16.3115 5.92717C15.1969 5.81738 14.073 5.84322 12.9646 6.00412L11.2719 4.27296L6.46302 6.35027L6.65535 8.81241C5.77188 9.5034 4.99422 10.3199 4.34712 11.236L1.88506 11.1591L0 16.0448L1.84662 17.6221C1.73756 18.7368 1.76341 19.8605 1.92357 20.969L0.153897 22.6618L2.2698 27.4706L4.69342 27.2783C5.40775 28.1539 6.23578 28.9301 7.15555 29.5865L7.07861 32.0101L11.9644 33.8952L13.5416 32.0871C14.6563 32.1961 15.7801 32.1703 16.8886 32.0101L18.5813 33.7413L23.3516 31.6639L23.1977 29.2018C24.0812 28.5108 24.8589 27.6943 25.506 26.7782L27.9296 26.8551L29.8147 21.9694L28.0066 20.3921C28.1227 19.2765 28.0838 18.1501 27.8912 17.0452L29.6608 15.3524L28.5452 12.7749C29.9061 12.5883 31.1656 11.9518 32.123 10.9668C33.8471 9.23028 34.4428 6.66889 33.6617 4.34983ZM28.0066 22.431L26.8909 25.2778H24.6981L24.4672 25.624C23.7745 26.6439 22.9163 27.5411 21.9281 28.2785L21.5819 28.5478L21.7742 30.7021L18.9274 31.8947L17.4271 30.3174L17.0039 30.3944C15.7865 30.6257 14.5403 30.6647 13.3108 30.5098H12.9261L11.5027 32.1255L8.65587 31.0099V28.7786L8.30964 28.5478C7.28154 27.8652 6.38275 27.0055 5.65517 26.0087L5.38588 25.6624L3.19303 25.8548L2.00044 23.008L3.5777 21.5077L3.50075 21.123C3.30201 19.8887 3.27609 18.6328 3.42381 17.3913V17.0067L1.84654 15.5832L2.92375 12.7364H5.1166L5.38588 12.3902C6.04322 11.3546 6.89194 10.4537 7.88645 9.73572L8.23269 9.46643L8.07879 7.27358L10.8872 6.04255L12.426 7.61982L12.8106 7.54287C14.032 7.3442 15.2752 7.31828 16.5038 7.46592H16.927L18.3504 5.85015L21.3511 7.0043C21.3647 7.3551 21.4162 7.70339 21.505 8.04299L18.8121 10.7359C17.5997 10.1532 16.2718 9.85073 14.9266 9.8511C9.91245 9.83004 5.83057 13.8778 5.80951 18.8919C5.78845 23.9061 9.83616 27.988 14.8503 28.009C19.8493 28.03 23.9248 24.006 23.9672 19.0071C23.9815 17.7636 23.7324 16.5312 23.2363 15.3909L25.9677 12.621L26.891 12.8134L27.8143 14.9677L26.237 16.5065L26.314 16.8912C26.545 18.1216 26.5839 19.3804 26.4294 20.6229L26.3524 21.0075L28.0066 22.431ZM20.4663 18.1223L22.0436 16.545C22.3054 17.3392 22.4354 18.171 22.4283 19.0072C22.449 23.1927 19.0728 26.6026 14.8872 26.6233C10.7017 26.6441 7.29178 23.2678 7.27109 19.0823C7.25032 14.8967 10.6266 11.4868 14.8121 11.4661C15.7866 11.4613 16.7528 11.6445 17.658 12.0055L15.9652 13.6597C14.1697 13.3164 12.3216 13.894 11.0411 15.1985C8.88517 17.3854 8.88517 20.8982 11.0411 23.085C12.0828 24.1231 13.4944 24.7044 14.9651 24.7008C18.0244 24.7338 20.5313 22.2805 20.5643 19.2211C20.5683 18.8525 20.5355 18.4844 20.4663 18.1223ZM26.0445 11.0437C25.7681 10.9347 25.4536 10.9946 25.2367 11.1976L19.0814 17.3529C18.8922 17.5457 18.8064 17.8173 18.8506 18.0839C19.246 19.4646 18.8633 20.9512 17.8503 21.9694C16.278 23.5522 13.7203 23.5608 12.1374 21.9886C10.5545 20.4163 10.5459 17.8586 12.1182 16.2757C12.8733 15.5238 13.8995 15.1078 14.965 15.1215L16.0422 15.2369C16.3026 15.3135 16.5841 15.2394 16.7732 15.0446L22.9285 8.88928C23.1293 8.67213 23.2023 8.36581 23.1208 8.08143C22.5211 6.32509 22.9515 4.38091 24.2364 3.04178C25.2281 2.04778 26.6073 1.54118 28.0066 1.65686L26.2369 3.38801C25.9626 3.6947 25.9626 4.15853 26.2369 4.46522L29.6223 7.92754C29.7735 8.05861 29.9617 8.13931 30.1609 8.15838C30.3735 8.14741 30.5764 8.06626 30.738 7.92754L32.4307 6.15787C32.5509 7.54633 32.0428 8.91564 31.0458 9.88954C29.7453 11.2147 27.7941 11.665 26.0445 11.0437Z" fill="#3C2213"/>
<path d="M16.6962 17.3914C16.2514 16.9373 15.6391 16.6868 15.0035 16.6989C14.3572 16.6896 13.734 16.939 13.2724 17.3914C12.3163 18.3282 12.3006 19.8626 13.2374 20.8187C13.2489 20.8305 13.2606 20.8421 13.2724 20.8537C13.7222 21.3003 14.3312 21.5494 14.9651 21.5461C15.6091 21.5432 16.2279 21.2957 16.6962 20.8537C17.6523 19.9169 17.668 18.3824 16.7312 17.4263C16.7196 17.4146 16.708 17.4029 16.6962 17.3914ZM15.6537 19.7034C15.6425 19.7153 15.631 19.7268 15.6191 19.738C15.2787 20.0886 14.7185 20.0968 14.3679 19.7564C14.3617 19.7503 14.3556 19.7442 14.3496 19.738C14.0096 19.4172 13.9941 18.8816 14.315 18.5416C14.3261 18.5298 14.3377 18.5182 14.3496 18.507C14.5146 18.3215 14.7557 18.2222 15.0036 18.2377C15.2392 18.2284 15.466 18.3277 15.6191 18.507C15.959 18.8278 15.9745 19.3635 15.6537 19.7034Z" fill="#3C2213"/>
</g>
<defs>
<clipPath id="clip0_1_575">
<rect width="34" height="34" fill="white"/>
</clipPath>
</defs>
</svg>
