<svg width="34" height="34" viewBox="0 0 34 34" fill="none" xmlns="http://www.w3.org/2000/svg">
<path d="M5.04688 0C3.39914 0 2.05859 1.34054 2.05859 2.98828V31.0117C2.05859 32.6595 3.39914 34 5.04688 34H28.9531C30.6009 34 31.9414 32.6595 31.9414 31.0117V2.98828C31.9414 1.34054 30.6009 0 28.9531 0H5.04688ZM29.9492 2.98828V31.0117C29.9492 31.561 29.5024 32.0078 28.9531 32.0078H5.04688C4.49763 32.0078 4.05078 31.561 4.05078 31.0117V2.98828C4.05078 2.43904 4.49763 1.99219 5.04688 1.99219H28.9531C29.5024 1.99219 29.9492 2.43904 29.9492 2.98828Z" fill="#3C2213"/>
<rect x="8" y="10" width="18" height="14" fill="#FDCF08"/>
<path d="M26.9609 8.10156H7.03906C6.48895 8.10156 6.04297 8.54755 6.04297 9.09766V25.0352C6.04297 25.5853 6.48895 26.0312 7.03906 26.0312H26.9609C27.511 26.0312 27.957 25.5853 27.957 25.0352V9.09766C27.957 8.54755 27.511 8.10156 26.9609 8.10156ZM8.03516 10.0938H16.0039V24.0391H8.03516V10.0938ZM25.9648 24.0391H17.9961V10.0938H25.9648V24.0391Z" fill="#3C2213"/>
<path d="M13.0156 20.0547H11.0234C10.4733 20.0547 10.0273 20.5007 10.0273 21.0508C10.0273 21.6009 10.4733 22.0469 11.0234 22.0469H13.0156C13.5657 22.0469 14.0117 21.6009 14.0117 21.0508C14.0117 20.5007 13.5657 20.0547 13.0156 20.0547Z" fill="#3C2213"/>
<path d="M20.9844 22.0469H22.9766C23.5267 22.0469 23.9727 21.6009 23.9727 21.0508C23.9727 20.5007 23.5267 20.0547 22.9766 20.0547H20.9844C20.4343 20.0547 19.9883 20.5007 19.9883 21.0508C19.9883 21.6009 20.4343 22.0469 20.9844 22.0469Z" fill="#3C2213"/>
<path d="M7.03906 6.10938C7.58919 6.10938 8.03516 5.66341 8.03516 5.11328C8.03516 4.56315 7.58919 4.11719 7.03906 4.11719C6.48894 4.11719 6.04297 4.56315 6.04297 5.11328C6.04297 5.66341 6.48894 6.10938 7.03906 6.10938Z" fill="#3C2213"/>
<path d="M26.9609 6.10938C27.5111 6.10938 27.957 5.66341 27.957 5.11328C27.957 4.56315 27.5111 4.11719 26.9609 4.11719C26.4108 4.11719 25.9648 4.56315 25.9648 5.11328C25.9648 5.66341 26.4108 6.10938 26.9609 6.10938Z" fill="#3C2213"/>
<path d="M7.03906 30.0156C7.58919 30.0156 8.03516 29.5697 8.03516 29.0195C8.03516 28.4694 7.58919 28.0234 7.03906 28.0234C6.48894 28.0234 6.04297 28.4694 6.04297 29.0195C6.04297 29.5697 6.48894 30.0156 7.03906 30.0156Z" fill="#3C2213"/>
<path d="M26.9609 30.0156C27.5111 30.0156 27.957 29.5697 27.957 29.0195C27.957 28.4694 27.5111 28.0234 26.9609 28.0234C26.4108 28.0234 25.9648 28.4694 25.9648 29.0195C25.9648 29.5697 26.4108 30.0156 26.9609 30.0156Z" fill="#3C2213"/>
</svg>
