<svg width="34" height="34" viewBox="0 0 34 34" fill="none" xmlns="http://www.w3.org/2000/svg">
<g clip-path="url(#clip0_1_598)">
<path d="M18.2617 0H3.65234C1.63844 0 0 1.63844 0 3.65234V30.3477C0 32.3616 1.63844 34 3.65234 34H18.2617C20.2756 34 21.9141 32.3616 21.9141 30.3477V3.65234C21.9141 1.63844 20.2756 0 18.2617 0ZM3.65234 1.99219H18.2617C19.1771 1.99219 19.9219 2.73693 19.9219 3.65234V11.9531H1.99219V3.65234C1.99219 2.73693 2.73693 1.99219 3.65234 1.99219ZM18.2617 32.0078H3.65234C2.73693 32.0078 1.99219 31.2631 1.99219 30.3477V13.9453H19.9219V30.3477C19.9219 31.2631 19.1771 32.0078 18.2617 32.0078Z" fill="#3C2213"/>
<path d="M10.957 9.96094C12.6048 9.96094 13.9453 8.62039 13.9453 6.97266C13.9453 5.32492 12.6048 3.98438 10.957 3.98438C9.30929 3.98438 7.96875 5.32492 7.96875 6.97266C7.96875 8.62039 9.30929 9.96094 10.957 9.96094ZM10.957 5.97656C11.5063 5.97656 11.9531 6.42341 11.9531 6.97266C11.9531 7.5219 11.5063 7.96875 10.957 7.96875C10.4078 7.96875 9.96094 7.5219 9.96094 6.97266C9.96094 6.42341 10.4078 5.97656 10.957 5.97656Z" fill="#3C2213"/>
<path d="M16.9336 7.96875C17.4837 7.96875 17.9297 7.52278 17.9297 6.97266C17.9297 6.42253 17.4837 5.97656 16.9336 5.97656C16.3835 5.97656 15.9375 6.42253 15.9375 6.97266C15.9375 7.52278 16.3835 7.96875 16.9336 7.96875Z" fill="#3C2213"/>
<path d="M4.98047 7.96875C5.5306 7.96875 5.97656 7.52278 5.97656 6.97266C5.97656 6.42253 5.5306 5.97656 4.98047 5.97656C4.43034 5.97656 3.98438 6.42253 3.98438 6.97266C3.98438 7.52278 4.43034 7.96875 4.98047 7.96875Z" fill="#3C2213"/>
<path d="M8.5 21L7.5 26V27H14.5V26L14 23L12.5 19.5H9.5L8.5 21Z" fill="#FDCF08"/>
<path d="M14.9414 22.508V21.9141C14.9414 20.0609 13.6696 18.4992 11.9531 18.0558V16.9336C11.9531 16.3835 11.5071 15.9375 10.957 15.9375C10.4069 15.9375 9.96092 16.3835 9.96092 16.9336V18.0558C8.24439 18.4992 6.97264 20.0609 6.97264 21.9141V22.508C6.97264 23.8771 6.57121 25.2028 5.81179 26.342C5.60806 26.6476 5.58907 27.0406 5.76239 27.3645C5.93571 27.6884 6.27325 27.8906 6.64061 27.8906H9.96092V28.8867C9.96092 29.4368 10.4069 29.8828 10.957 29.8828C11.5071 29.8828 11.9531 29.4368 11.9531 28.8867V27.8906H15.2734C15.6408 27.8906 15.9783 27.6884 16.1516 27.3646C16.325 27.0407 16.306 26.6476 16.1022 26.342C15.3428 25.2028 14.9414 23.8771 14.9414 22.508ZM8.29519 25.8984C8.73612 24.8292 8.96483 23.6809 8.96483 22.508V21.9141C8.96483 20.8156 9.85852 19.9219 10.957 19.9219C12.0555 19.9219 12.9492 20.8156 12.9492 21.9141V22.508C12.9492 23.6809 13.1779 24.8292 13.6188 25.8984H8.29519Z" fill="#3C2213"/>
<path d="M25.0389 17.9961C25.5891 17.9961 26.035 17.5501 26.035 17C26.035 16.4499 25.5891 16.0039 25.0389 16.0039C24.4888 16.0039 24.0428 16.4499 24.0428 17C24.0428 17.5501 24.4888 17.9961 25.0389 17.9961Z" fill="#3C2213"/>
<path d="M31.3779 10.6609C30.989 10.2719 30.3583 10.2719 29.9692 10.6609C29.5802 11.0499 29.5802 11.6805 29.9692 12.0695C31.2838 13.3841 32.0077 15.1351 32.0077 17C32.0077 18.8649 31.2838 20.6159 29.9692 21.9304C29.5802 22.3194 29.5802 22.9501 29.9692 23.3391C30.1637 23.5336 30.4187 23.6309 30.6735 23.6309C30.9284 23.6309 31.1834 23.5336 31.3778 23.3392C33.0687 21.6483 33.9999 19.3971 33.9999 17C33.9999 14.603 33.0687 12.3517 31.3779 10.6609Z" fill="#3C2213"/>
<path d="M28.5607 13.4783C28.1717 13.0893 27.541 13.0892 27.152 13.4783C26.763 13.8673 26.763 14.4979 27.152 14.8869C27.7164 15.4513 28.0272 16.2017 28.0272 16.9999C28.0272 17.7981 27.7164 18.5485 27.152 19.1129C26.763 19.5019 26.763 20.1325 27.152 20.5216C27.3465 20.7161 27.6014 20.8133 27.8563 20.8133C28.1112 20.8133 28.3662 20.7161 28.5606 20.5216C29.5013 19.5809 30.0193 18.3302 30.0193 16.9999C30.0193 15.6696 29.5014 14.4189 28.5607 13.4783Z" fill="#3C2213"/>
</g>
<defs>
<clipPath id="clip0_1_598">
<rect width="34" height="34" fill="white"/>
</clipPath>
</defs>
</svg>
