<svg width="34" height="34" viewBox="0 0 34 34" fill="none" xmlns="http://www.w3.org/2000/svg">
<g clip-path="url(#clip0_1_514)">
<rect x="14" y="18" width="8" height="14" fill="#FDCF08"/>
<path d="M14.0118 15.9376C13.4617 15.9376 13.0157 16.3836 13.0157 16.9337V33.0039C13.0157 33.554 13.4617 34 14.0118 34H21.9805C22.5306 34 22.9766 33.554 22.9766 33.0039V16.9337C22.9766 16.3836 22.5306 15.9376 21.9805 15.9376H20.9844C20.9844 12.8439 20.9844 4.80073 20.9844 0.996271C20.9844 0.446165 20.5384 0.000183105 19.9883 0.000183105H16.004C15.4539 0.000183105 15.0079 0.446165 15.0079 0.996271V15.9376H14.0118ZM20.9844 32.0078H15.0079V17.9298H20.9844V32.0078ZM17.0001 7.38538L18.9922 9.37756V12.5367L17.0001 10.5446V7.38538ZM18.9922 1.99236V6.56022L17.0001 4.56804V1.99236H18.9922ZM17.0001 13.3619L18.9922 15.3541V15.9376H17.0001V13.3619Z" fill="#3C2213"/>
<path d="M6.90814 15.9376H6.04314C5.49303 15.9376 5.04705 16.3836 5.04705 16.9337V33.0039C5.04705 33.554 5.49303 34 6.04314 34H10.0275C10.5776 34 11.0236 33.554 11.0236 33.0039V16.9337C11.0236 16.3836 10.5776 15.9376 10.0275 15.9376H9.16249C9.69287 12.2627 10.9659 8.67298 12.8738 5.49313C13.1569 5.02138 13.0039 4.40952 12.5321 4.1265C12.0602 3.84334 11.4485 3.99648 11.1655 4.46816C10.7137 5.22113 10.296 5.99596 9.91188 6.78818C10.2033 4.91978 10.5645 3.06288 10.9971 1.2245C11.1231 0.688999 10.7911 0.152771 10.2556 0.0267331C9.7201 -0.0991724 9.1838 0.232724 9.05783 0.768221C8.65853 2.46502 8.31761 4.17663 8.03532 5.89894C7.75302 4.17663 7.41203 2.46509 7.0128 0.768221C6.88683 0.232724 6.35053 -0.0991724 5.81504 0.0267331C5.27947 0.152705 4.94751 0.688932 5.07348 1.22443C5.50605 3.06281 5.86723 4.91978 6.15869 6.78811C5.77459 5.99596 5.35683 5.22107 4.90508 4.46816C4.62205 3.99648 4.01019 3.84341 3.53844 4.1265C3.0667 4.40952 2.91376 5.02138 3.19678 5.49313C5.10476 8.67298 6.37776 12.2627 6.90814 15.9376ZM9.0314 32.0078H7.03923V17.9298H9.0314V32.0078Z" fill="#3C2213"/>
<path d="M27.9571 0.000183105C27.407 0.000183105 26.961 0.446165 26.961 0.996271V15.9376H25.9649C25.4148 15.9376 24.9688 16.3836 24.9688 16.9337V33.0039C24.9688 33.554 25.4148 34 25.9649 34H29.9492C30.4993 34 30.9453 33.554 30.9453 33.0039V16.9337C30.9453 16.3836 30.4993 15.9376 29.9492 15.9376H28.9531V0.996271C28.9531 0.446165 28.5072 0.000183105 27.9571 0.000183105ZM28.9531 32.0078H26.961V17.9298H28.9531V32.0078Z" fill="#3C2213"/>
</g>
<defs>
<clipPath id="clip0_1_514">
<rect width="34" height="34" fill="white"/>
</clipPath>
</defs>
</svg>
