<svg width="88" height="51" viewBox="0 0 88 51" fill="none" xmlns="http://www.w3.org/2000/svg">
<path d="M35.8075 47.4754H13.4007C11.9069 47.4754 10.6847 46.2532 10.6847 44.7594V11.3302C10.6847 9.83642 11.9069 8.61423 13.4007 8.61423H35.8075C37.3013 8.61423 38.5235 9.83642 38.5235 11.3302V44.7368C38.5235 46.2532 37.3013 47.4754 35.8075 47.4754Z" fill="#F7941D"/>
<path d="M36.2157 45.6421H14.1257C13.1751 45.6421 12.4056 44.8725 12.4056 43.922V11.0585C12.4056 10.108 13.1751 9.33842 14.1257 9.33842H36.2157C37.1663 9.33842 37.9358 10.108 37.9358 11.0585V43.922C37.9358 44.8499 37.1663 45.6421 36.2157 45.6421Z" fill="#FFCE06"/>
<path d="M31.0096 21.583H18.1766C17.3392 21.583 16.6602 20.904 16.6602 20.0666V15.5173C16.6602 14.6799 17.3392 14.0009 18.1766 14.0009H31.0096C31.847 14.0009 32.526 14.6799 32.526 15.5173V20.0666C32.526 20.904 31.847 21.583 31.0096 21.583Z" fill="#603913"/>
<path d="M31.779 20.9719H18.5386C17.8144 20.9719 17.2485 20.3835 17.2485 19.6818V14.7252C17.2485 14.0009 17.837 13.4351 18.5386 13.4351H31.779C32.5033 13.4351 33.0691 14.0235 33.0691 14.7252V19.6818C33.0918 20.4061 32.5033 20.9719 31.779 20.9719Z" fill="#3C2415"/>
<path d="M25.7362 26.0644L21.6848 34.5518L24.6045 34.5066L22.7712 41.3418L27.5015 33.2391L24.5819 33.2844L25.7362 26.0644Z" fill="#3C2415"/>
<path d="M35.8076 7.70892H13.4008C11.4091 7.70892 9.77948 9.33851 9.77948 11.3302V44.7368C9.77948 46.7285 11.4091 48.3581 13.4008 48.3581H19.0591V49.5351C19.0591 49.9198 19.3533 50.2141 19.7381 50.2141C20.1228 50.2141 20.4171 49.9198 20.4171 49.5351V48.3581H28.7913V49.5351C28.7913 49.9198 29.0856 50.2141 29.4703 50.2141C29.8551 50.2141 30.1493 49.9198 30.1493 49.5351V48.3581H35.8076C37.7993 48.3581 39.4289 46.7285 39.4289 44.7368V11.3302C39.4289 9.33851 37.7993 7.70892 35.8076 7.70892ZM37.6183 44.7595C37.6183 45.7553 36.8035 46.5701 35.8076 46.5701H13.4008C12.4049 46.5701 11.5901 45.7553 11.5901 44.7595V11.3302C11.5901 10.3344 12.4049 9.51958 13.4008 9.51958H35.8076C36.8035 9.51958 37.6183 10.3344 37.6183 11.3302V44.7595Z" fill="#3C2415"/>
<path d="M44.6807 25.4759L43.6396 24.4348V12.9598H45.7218V23.3937H46.763V15.042H48.8452V23.3937H49.8863V12.9598H51.9686V24.4348L50.9275 25.4759H48.8452L47.8041 24.4348L46.763 25.4759H44.6807V25.4759Z" fill="#3C2415"/>
<path d="M52.8962 25.476V12.9598H54.9785V25.476H52.8962Z" fill="#3C2415"/>
<path d="M55.9062 25.476V12.9598H60.0708L61.1119 14.0009V18.1654L60.0708 19.2066L61.1119 20.2477V25.476H59.0296V20.2477H57.9885V25.476H55.9062V25.476ZM59.0296 18.1654V15.0421H57.9885V18.1654H59.0296Z" fill="#3C2415"/>
<path d="M62.0399 25.476V12.9598H67.2682V15.0421H64.1222V18.1654H66.2044V20.2477H64.1222V23.3711H67.2455V25.4533H62.0399V25.476Z" fill="#3C2415"/>
<path d="M70.2556 25.476V14.0009L71.2967 12.9598H74.4201L75.4612 14.0009V25.476H73.3789V21.3115H72.3378V25.476H70.2556ZM73.3789 19.2066V15.0421H72.3378V19.2066H73.3789Z" fill="#3C2415"/>
<path d="M76.3892 25.476V14.0009L77.4303 12.9598H80.5537L81.5948 14.0009V25.476H79.5126V15.0421H78.4715V25.476H76.3892Z" fill="#3C2415"/>
<path d="M82.5229 25.476V12.9598H86.6874L87.7285 14.0009V24.4348L86.6874 25.476H82.5229ZM85.6463 23.3937V15.0421H84.6051V23.3937H85.6463Z" fill="#3C2415"/>
<path d="M44.929 43.4242L43.6389 42.1341V38.2638H46.2191V40.844H47.5092V36.9737H44.929L43.6389 35.6836V29.2331L44.929 27.9431H48.7993L50.0894 29.2331V33.1034H47.5092V30.5232H46.2191V34.3935H48.7993L50.0894 35.6836V42.1341L48.7993 43.4242H44.929Z" fill="#3C2415"/>
<path d="M52.5111 43.4242L51.221 42.1341V27.9431H53.8012V40.844H55.0913V30.5232H57.6715V40.844H58.9616V27.9431H61.5417V42.1341L60.2516 43.4242H57.6715L56.3814 42.1341L55.0913 43.4242H52.5111Z" fill="#3C2415"/>
<path d="M62.6735 43.4242V27.9431H65.2537V43.4242H62.6735Z" fill="#3C2415"/>
<path d="M68.332 43.4242V30.5232H66.3856V27.9431H72.836V30.5232H70.9122V43.4242H68.332Z" fill="#3C2415"/>
<path d="M75.2577 43.4242L73.9676 42.1341V29.2331L75.2577 27.9431H79.128L80.418 29.2331V33.1034H77.8379V30.5232H76.5478V40.844H77.8379V38.2638H80.418V42.1341L79.128 43.4242H75.2577V43.4242Z" fill="#3C2415"/>
<path d="M81.5493 43.4242V27.9431H84.1294V34.3935H85.4195V27.9431H87.9997V43.4242H85.4195V36.9737H84.1294V43.4242H81.5493Z" fill="#3C2415"/>
<path d="M9.75699 22.7599H2.96704V31.8132H9.75699V22.7599Z" fill="#3C2415"/>
<path d="M4.59639 2.69209C5.50171 2.69209 6.22597 3.34456 6.22597 4.16013V24.7739C6.22597 25.5895 5.50171 26.2419 4.59639 26.2419C3.69106 26.2419 2.9668 25.5895 2.9668 24.7739V4.16013C2.9668 3.34456 3.69106 2.69209 4.59639 2.69209Z" fill="#3C2415"/>
<path d="M5.43082 27.8552L7.15094 27.8552L7.15094 1.49161L5.43082 1.49161L5.43082 27.8552Z" fill="#603913"/>
<path d="M5.22035 10.4407C8.10346 10.4407 10.4407 8.10347 10.4407 5.22035C10.4407 2.33723 8.10346 0 5.22035 0C2.33723 0 0 2.33723 0 5.22035C0 8.10347 2.33723 10.4407 5.22035 10.4407Z" fill="#3C2415"/>
<path d="M7.30839 7.15938C8.87351 7.15938 10.1423 5.8906 10.1423 4.32548C10.1423 2.76036 8.87351 1.49158 7.30839 1.49158C5.74327 1.49158 4.47449 2.76036 4.47449 4.32548C4.47449 5.8906 5.74327 7.15938 7.30839 7.15938Z" fill="#754C29"/>
</svg>
