<svg width="17" height="21" viewBox="0 0 17 21" fill="none" xmlns="http://www.w3.org/2000/svg">
<path opacity="0.3" d="M15.7318 18.7188C15.7318 19.1353 15.3911 19.476 14.9746 19.476H5.60391C5.18743 19.476 4.84668 19.1353 4.84668 18.7188V4.73843C4.84668 4.32195 5.18743 3.9812 5.60391 3.9812H14.9746C15.3911 3.9812 15.7318 4.32195 15.7318 4.73843V18.7188Z" fill="#CDCDCD"/>
<path d="M14.975 3.224H5.6043C4.77135 3.224 4.08984 3.90551 4.08984 4.73846V18.7093C4.08984 19.5423 4.77135 20.2238 5.6043 20.2238H7.97064V20.716C7.97064 20.8769 8.09369 21 8.2546 21C8.41551 21 8.53856 20.8769 8.53856 20.716V20.2238H12.0407V20.716C12.0407 20.8769 12.1638 21 12.3247 21C12.4856 21 12.6087 20.8769 12.6087 20.716V20.2238H14.975C15.808 20.2238 16.4895 19.5423 16.4895 18.7093V4.73846C16.4895 3.90551 15.808 3.224 14.975 3.224ZM15.7322 18.7188C15.7322 19.1353 15.3915 19.476 14.975 19.476H5.6043C5.18783 19.476 4.84707 19.1353 4.84707 18.7188V4.73846C4.84707 4.32198 5.18783 3.98123 5.6043 3.98123H14.975C15.3915 3.98123 15.7322 4.32198 15.7322 4.73846V18.7188Z" fill="#CDCDCD"/>
<path d="M12.9669 9.02625H7.6C7.24978 9.02625 6.96582 8.74228 6.96582 8.39206V6.48953C6.96582 6.13931 7.24978 5.85535 7.6 5.85535H12.9669C13.3171 5.85535 13.601 6.13931 13.601 6.48953V8.39206C13.601 8.74228 13.3171 9.02625 12.9669 9.02625Z" fill="#CDCDCD"/>
<path d="M4.08082 9.51843H1.24121V13.3046H4.08082V9.51843Z" fill="#CDCDCD"/>
<path d="M1.92369 1.12585C2.30231 1.12585 2.6052 1.39872 2.6052 1.7398V10.3606C2.6052 10.7017 2.30231 10.9746 1.92369 10.9746C1.54508 10.9746 1.24219 10.7017 1.24219 10.3606V1.7398C1.24219 1.39872 1.54508 1.12585 1.92369 1.12585Z" fill="#CDCDCD"/>
<path d="M2.18319 4.36638C3.38893 4.36638 4.36637 3.38893 4.36637 2.18319C4.36637 0.977446 3.38893 0 2.18319 0C0.977446 0 0 0.977446 0 2.18319C0 3.38893 0.977446 4.36638 2.18319 4.36638Z" fill="#CDCDCD"/>
</svg>
