<svg width="17" height="17" viewBox="0 0 17 17" fill="none" xmlns="http://www.w3.org/2000/svg">
<g clip-path="url(#clip0_878_1148)">
<path d="M5.10307 11.1932H14.4701C15.5322 11.1932 16.3987 10.3267 16.3987 9.2646V5.32354C16.3987 5.32005 16.3987 5.31306 16.3987 5.30956C16.3987 5.29908 16.3987 5.29209 16.3987 5.28161C16.3987 5.27463 16.3987 5.26764 16.3952 5.26065C16.3952 5.25366 16.3917 5.24318 16.3917 5.23619C16.3917 5.22921 16.3882 5.22222 16.3882 5.21523C16.3847 5.20824 16.3847 5.20125 16.3812 5.19077C16.3777 5.18378 16.3777 5.1768 16.3742 5.16981C16.3707 5.16282 16.3707 5.15583 16.3672 5.14885C16.3638 5.14186 16.3603 5.13487 16.3568 5.12439C16.3533 5.1174 16.3498 5.11041 16.3463 5.10692C16.3428 5.09993 16.3393 5.09294 16.3358 5.08596C16.3323 5.07897 16.3288 5.07548 16.3253 5.06849C16.3218 5.0615 16.3148 5.05451 16.3113 5.04752C16.3078 5.04054 16.3044 5.03704 16.2974 5.03006C16.2939 5.02307 16.2869 5.01957 16.2834 5.01259C16.2799 5.0056 16.2729 5.0021 16.2694 4.99512C16.2659 4.98813 16.2589 4.98464 16.2554 4.98114C16.2485 4.97415 16.245 4.97066 16.238 4.96367C16.231 4.96018 16.2275 4.95319 16.2205 4.9497C16.2135 4.9462 16.2065 4.93922 16.1995 4.93572C16.1926 4.93223 16.1891 4.92873 16.1821 4.92524C16.1751 4.92175 16.1681 4.91825 16.1611 4.91126C16.1541 4.90777 16.1471 4.90428 16.1401 4.90078C16.1332 4.89729 16.1262 4.8938 16.1192 4.8903C16.1122 4.88681 16.1052 4.88331 16.0982 4.87982C16.0912 4.87633 16.0842 4.87633 16.0773 4.87283C16.0703 4.86934 16.0598 4.86584 16.0528 4.86584C16.0458 4.86584 16.0388 4.86235 16.0353 4.86235C16.0248 4.85886 16.0179 4.85886 16.0074 4.85886C16.0039 4.85886 16.0004 4.85536 15.9934 4.85536L4.1213 3.21675V1.56066C4.1213 1.54319 4.1213 1.52572 4.1178 1.51175C4.1178 1.50825 4.1178 1.50476 4.11431 1.49777C4.11431 1.48729 4.11081 1.47681 4.11081 1.46633C4.10732 1.45584 4.10732 1.44886 4.10383 1.43838C4.10383 1.43139 4.10033 1.42789 4.10033 1.42091C4.09684 1.41042 4.09335 1.39994 4.08985 1.38946C4.08985 1.38597 4.08636 1.37898 4.08636 1.37549C4.08286 1.365 4.07937 1.35802 4.07238 1.34754C4.06889 1.34404 4.06889 1.33705 4.06539 1.33356C4.0619 1.32657 4.05841 1.31958 4.05142 1.3126C4.04793 1.30561 4.04443 1.30211 4.04094 1.29513C4.03744 1.28814 4.03395 1.28465 4.03046 1.27766C4.02696 1.27067 4.01997 1.26368 4.01648 1.25669C4.01299 1.2532 4.00949 1.24971 4.006 1.24621C3.99901 1.23923 3.99202 1.23224 3.98504 1.22525C3.98154 1.22176 3.97805 1.21826 3.97455 1.21477C3.96757 1.20778 3.96058 1.20079 3.9501 1.19381C3.9466 1.19031 3.93962 1.18682 3.93612 1.18332C3.92913 1.17634 3.92215 1.17284 3.91516 1.16585C3.90468 1.15887 3.8942 1.15188 3.88721 1.14839C3.88371 1.14489 3.88022 1.14489 3.87673 1.1414C3.86275 1.13441 3.84528 1.12742 3.83131 1.12043L1.25634 0.0373405C1.01526 -0.0639812 0.739248 0.0478221 0.637926 0.288898C0.536605 0.529974 0.648408 0.805988 0.889484 0.90731L3.17446 1.87161V4.00985V4.34875V6.94818V9.27159V12.2064C3.17446 13.1847 3.90817 13.9953 4.855 14.1176C4.68381 14.4041 4.58248 14.7395 4.58248 15.0958C4.58248 16.1475 5.43848 17 6.48663 17C7.53479 17 8.39078 16.144 8.39078 15.0958C8.39078 14.7465 8.29645 14.4145 8.12874 14.135H12.3703C12.2026 14.418 12.1082 14.7465 12.1082 15.0958C12.1082 16.1475 12.9642 17 14.0124 17C15.0605 17 15.9165 16.144 15.9165 15.0958C15.9165 14.0477 15.0605 13.1917 14.0124 13.1917H5.10307C4.55803 13.1917 4.1178 12.748 4.1178 12.2064V10.9277C4.4043 11.0954 4.7432 11.1932 5.10307 11.1932ZM7.45094 15.0924C7.45094 15.6234 7.0177 16.0532 6.49013 16.0532C5.96256 16.0532 5.52932 15.6199 5.52932 15.0924C5.52932 14.5648 5.96256 14.1315 6.49013 14.1315C7.0177 14.1315 7.45094 14.5613 7.45094 15.0924ZM14.9767 15.0924C14.9767 15.6234 14.5435 16.0532 14.0159 16.0532C13.4883 16.0532 13.0551 15.6199 13.0551 15.0924C13.0551 14.5648 13.4883 14.1315 14.0159 14.1315C14.5435 14.1315 14.9767 14.5613 14.9767 15.0924ZM14.4701 10.2499H5.10307C4.55803 10.2499 4.1178 9.80615 4.1178 9.2646V6.94119V4.34177V4.16707L15.4553 5.72883V9.26111C15.4553 9.80965 15.0116 10.2499 14.4701 10.2499Z" fill="black"/>
</g>
<defs>
<clipPath id="clip0_878_1148">
<rect width="17" height="17" fill="white"/>
</clipPath>
</defs>
</svg>
