<svg width="16" height="20" viewBox="0 0 16 20" fill="none" xmlns="http://www.w3.org/2000/svg">
<path fill-rule="evenodd" clip-rule="evenodd" d="M7.92977 18.7791V19.2362C7.92977 19.3856 7.81551 19.4999 7.66609 19.4999C7.51668 19.4999 7.40242 19.3856 7.40242 19.2362V18.7791H5.20511C4.43165 18.7791 3.79883 18.1463 3.79883 17.3729V4.39993C3.79883 3.62648 4.43165 2.99365 5.20511 2.99365H13.9065C14.6799 2.99365 15.3127 3.62648 15.3127 4.39993V17.3729C15.3127 18.1463 14.6799 18.7791 13.9065 18.7791H11.7091V19.2362C11.7091 19.3856 11.5949 19.4999 11.4455 19.4999C11.2961 19.4999 11.1818 19.3856 11.1818 19.2362V18.7791H7.92977ZM13.9065 17.8506C14.1671 17.8506 14.3842 17.6335 14.3842 17.3729V4.39993C14.3842 4.13931 14.1671 3.92222 13.9065 3.92222H5.20511C4.94449 3.92222 4.7274 4.13931 4.7274 4.39993V17.3729C4.7274 17.6335 4.94449 17.8506 5.20511 17.8506H13.9065Z" fill="black"/>
<path d="M12.0402 8.38141H7.05665C6.73145 8.38141 6.46777 8.11773 6.46777 7.79253V6.02589C6.46777 5.70069 6.73145 5.43701 7.05665 5.43701H12.0402C12.3654 5.43701 12.629 5.70069 12.629 6.02589V7.79253C12.629 8.11773 12.3654 8.38141 12.0402 8.38141Z" fill="black"/>
<path d="M3.78814 8.83838H1.15137V12.3541H3.78814V8.83838Z" fill="black"/>
<path d="M1.78517 1.04541C2.13674 1.04541 2.418 1.29878 2.418 1.6155V9.62053C2.418 9.93725 2.13674 10.1906 1.78517 10.1906C1.4336 10.1906 1.15234 9.93725 1.15234 9.62053V1.6155C1.15234 1.29878 1.4336 1.04541 1.78517 1.04541Z" fill="black"/>
<path d="M2.02724 4.05448C3.14686 4.05448 4.05448 3.14686 4.05448 2.02724C4.05448 0.907627 3.14686 0 2.02724 0C0.907627 0 0 0.907627 0 2.02724C0 3.14686 0.907627 4.05448 2.02724 4.05448Z" fill="black"/>
<path d="M9.99516 10.1218L8.42188 13.4178L9.5557 13.4002L8.84376 16.0546L10.6807 12.908L9.54691 12.9256L9.99516 10.1218Z" fill="black"/>
</svg>
