<svg width="15" height="17" viewBox="0 0 15 17" fill="none" xmlns="http://www.w3.org/2000/svg">
<path d="M7.43777 9.16008C7.45537 9.16008 7.47297 9.16008 7.4941 9.16008C7.50114 9.16008 7.50818 9.16008 7.51522 9.16008C7.52578 9.16008 7.53986 9.16008 7.55042 9.16008C8.5819 9.14247 9.41623 8.77987 10.0323 8.08635C11.3877 6.5585 11.1623 3.93933 11.1377 3.68938C11.0497 1.81301 10.1626 0.915303 9.43031 0.496376C8.88465 0.183061 8.24746 0.0140816 7.53634 0H7.5117C7.50818 0 7.50114 0 7.49762 0H7.47649C7.08573 0 6.31828 0.0633672 5.58252 0.482294C4.84324 0.901222 3.94202 1.79892 3.85401 3.68938C3.82936 3.93933 3.60406 6.5585 4.95941 8.08635C5.57196 8.77987 6.40629 9.14247 7.43777 9.16008ZM4.79395 3.77739C4.79395 3.76683 4.79747 3.75626 4.79747 3.74922C4.91364 1.2251 6.70553 0.954028 7.47297 0.954028H7.48705C7.4941 0.954028 7.50466 0.954028 7.51522 0.954028C8.46572 0.97515 10.0816 1.36239 10.1907 3.74922C10.1907 3.75978 10.1907 3.77035 10.1942 3.77739C10.1978 3.80203 10.4442 6.1959 9.3247 7.4562C8.88113 7.9561 8.28971 8.20253 7.5117 8.20957C7.50466 8.20957 7.50114 8.20957 7.4941 8.20957C7.48705 8.20957 7.48353 8.20957 7.47649 8.20957C6.70201 8.20253 6.10706 7.9561 5.66701 7.4562C4.55104 6.20294 4.79043 3.79851 4.79395 3.77739Z" fill="black"/>
<path d="M14.7288 13.5043C14.7288 13.5008 14.7288 13.4972 14.7288 13.4937C14.7288 13.4656 14.7252 13.4374 14.7252 13.4057C14.7041 12.7087 14.6584 11.0787 13.1305 10.5577C13.1199 10.5542 13.1059 10.5507 13.0953 10.5472C11.5076 10.1423 10.1874 9.227 10.1734 9.21644C9.95862 9.06506 9.66291 9.11787 9.51153 9.33262C9.36016 9.54736 9.41296 9.84307 9.62771 9.99445C9.68755 10.0367 11.0887 11.0118 12.8418 11.4625C13.6621 11.7546 13.7536 12.6312 13.7783 13.4339C13.7783 13.4656 13.7783 13.4937 13.7818 13.5219C13.7853 13.8387 13.7642 14.3281 13.7078 14.6097C13.1375 14.9336 10.9021 16.0531 7.50139 16.0531C4.11476 16.0531 1.86523 14.93 1.2914 14.6062C1.23508 14.3245 1.21044 13.8352 1.21748 13.5184C1.21748 13.4902 1.221 13.462 1.221 13.4304C1.24564 12.6277 1.33717 11.7511 2.15742 11.4589C3.91058 11.0083 5.3117 10.0297 5.37155 9.99093C5.58629 9.83955 5.6391 9.54384 5.48772 9.32909C5.33634 9.11435 5.04063 9.06154 4.82588 9.21292C4.8118 9.22348 3.49869 10.1388 1.90395 10.5436C1.88987 10.5472 1.87931 10.5507 1.86875 10.5542C0.340897 11.0787 0.295132 12.7087 0.27401 13.4022C0.27401 13.4339 0.27401 13.462 0.270489 13.4902C0.270489 13.4937 0.270489 13.4972 0.270489 13.5008C0.266969 13.6838 0.263449 14.6238 0.45003 15.0955C0.485234 15.187 0.548601 15.2645 0.63309 15.3173C0.738702 15.3877 3.26987 17 7.50491 17C11.7399 17 14.2711 15.3842 14.3767 15.3173C14.4577 15.2645 14.5246 15.187 14.5598 15.0955C14.7358 14.6273 14.7323 13.6873 14.7288 13.5043Z" fill="black"/>
</svg>
